<?xml version="1.0" encoding="utf-8"?>
<!-- Generator: Adobe Illustrator 16.0.0, SVG Export Plug-In . SVG Version: 6.00 Build 0)  -->
<!DOCTYPE svg PUBLIC "-//W3C//DTD SVG 1.1//EN" "http://www.w3.org/Graphics/SVG/1.1/DTD/svg11.dtd">
<svg version="1.1" id="图层_1" xmlns="http://www.w3.org/2000/svg" xmlns:xlink="http://www.w3.org/1999/xlink" x="0px" y="0px"
	 width="53px" height="53px" viewBox="0 0 53 53" enable-background="new 0 0 53 53" xml:space="preserve">
<path fill="#3DB481" d="M53,47.861C53,50.699,50.702,53,47.867,53H5.133C2.298,53,0,50.699,0,47.861V5.139C0,2.301,2.298,0,5.133,0
	h42.734C50.702,0,53,2.301,53,5.139V47.861z"/>
<g>
	<path fill="#FFFFFF" d="M42.513,39.668H41.66c0,0.575-0.23,1.089-0.607,1.467c-0.379,0.377-0.893,0.608-1.467,0.608H13.25
		c-0.575,0-1.088-0.231-1.467-0.608c-0.377-0.378-0.607-0.892-0.608-1.467V13.334c0-0.576,0.23-1.09,0.608-1.468
		c0.378-0.377,0.892-0.608,1.467-0.608h26.335c0.574,0.001,1.088,0.231,1.467,0.609c0.377,0.377,0.607,0.892,0.607,1.467v26.334
		H42.513h0.854V13.334c0-2.088-1.692-3.781-3.78-3.782H13.25c-2.088,0.001-3.78,1.693-3.781,3.782v26.334
		c0.001,2.089,1.692,3.781,3.781,3.781h26.335c2.088,0,3.78-1.692,3.78-3.781H42.513z"/>
	<path fill="#FFFFFF" d="M37.525,35.589h-0.853c-0.001,0.645-0.523,1.165-1.169,1.166H17.331c-0.644-0.001-1.166-0.521-1.167-1.166
		V17.414c0.001-0.645,0.523-1.167,1.167-1.168h18.173c0.646,0.001,1.168,0.523,1.169,1.168v18.175H37.525h0.854V17.414
		c0-1.588-1.286-2.874-2.875-2.875H17.331c-1.587,0-2.874,1.286-2.874,2.875v18.175c0,1.586,1.287,2.872,2.874,2.872h18.173
		c1.589,0,2.875-1.286,2.875-2.872H37.525z"/>
	<path fill="#FFFFFF" d="M46.618,38.427h0.568c0.001-0.472,0.383-0.851,0.854-0.853c0.47,0.002,0.852,0.381,0.852,0.853
		c0,0.47-0.382,0.852-0.852,0.852c-0.471,0-0.853-0.382-0.854-0.852H46.618h-0.569c0.001,1.1,0.892,1.988,1.991,1.988
		c1.099,0,1.989-0.889,1.989-1.988c0-1.101-0.892-1.99-1.989-1.99c-1.1,0-1.99,0.89-1.991,1.99H46.618z"/>
	<path fill="#FFFFFF" d="M46.618,23.638h0.568c0.001-0.47,0.383-0.852,0.854-0.852c0.47,0,0.852,0.381,0.852,0.852
		c0,0.471-0.382,0.852-0.852,0.854c-0.471-0.001-0.853-0.382-0.854-0.854H46.618h-0.569c0.001,1.099,0.892,1.99,1.991,1.991
		c1.099-0.001,1.989-0.892,1.989-1.991c0-1.1-0.891-1.99-1.989-1.99c-1.1,0-1.99,0.89-1.991,1.99H46.618z"/>
	<path fill="#FFFFFF" d="M46.618,16.365h0.568c0.001-0.471,0.383-0.852,0.854-0.853c0.47,0,0.852,0.381,0.852,0.853
		c0,0.471-0.382,0.853-0.852,0.853c-0.471,0-0.853-0.382-0.854-0.853H46.618h-0.569c0.001,1.1,0.892,1.989,1.991,1.99
		c1.099,0,1.989-0.89,1.989-1.99c0-1.1-0.891-1.99-1.989-1.99c-1.1,0-1.99,0.89-1.991,1.99H46.618z"/>
	<path fill="#FFFFFF" d="M46.618,31.049h0.568c0.001-0.472,0.383-0.853,0.854-0.853c0.47,0,0.852,0.381,0.852,0.853
		c0,0.47-0.382,0.851-0.852,0.851c-0.471,0-0.853-0.381-0.854-0.851H46.618h-0.569c0.001,1.1,0.892,1.989,1.991,1.989
		c1.098,0,1.989-0.89,1.989-1.989c0-1.101-0.891-1.99-1.989-1.99c-1.1,0-1.99,0.89-1.991,1.99H46.618z"/>
	<polyline fill="#FFFFFF" points="46.618,23.069 42.626,23.069 42.626,24.207 46.618,24.207 	"/>
	<polyline fill="#FFFFFF" points="46.618,15.796 42.626,15.796 42.626,16.933 46.618,16.933 	"/>
	<polyline fill="#FFFFFF" points="46.618,30.479 42.626,30.479 42.626,31.617 46.618,31.617 	"/>
	<polyline fill="#FFFFFF" points="46.618,37.857 42.626,37.857 42.626,38.995 46.618,38.995 	"/>
	<path fill="#FFFFFF" d="M6.382,15.458H5.814c0,0.471-0.382,0.851-0.852,0.852c-0.472-0.001-0.852-0.383-0.854-0.852
		c0.001-0.471,0.383-0.852,0.854-0.853c0.469,0,0.851,0.381,0.852,0.853H6.382h0.569c0-1.1-0.89-1.99-1.989-1.99
		c-1.099,0-1.99,0.89-1.991,1.99c0.001,1.099,0.892,1.989,1.991,1.989c1.098,0,1.989-0.89,1.989-1.989H6.382z"/>
	<path fill="#FFFFFF" d="M6.382,30.246H5.814c0,0.471-0.382,0.854-0.852,0.854c-0.471,0-0.852-0.383-0.854-0.854
		c0.001-0.47,0.383-0.851,0.854-0.853c0.469,0.002,0.851,0.381,0.852,0.853H6.382h0.569c0-1.099-0.89-1.989-1.989-1.991
		c-1.099,0.002-1.99,0.893-1.991,1.991c0.001,1.1,0.892,1.99,1.991,1.99c1.099,0,1.989-0.891,1.989-1.99H6.382z"/>
	<path fill="#FFFFFF" d="M6.382,37.521H5.814c0,0.47-0.382,0.852-0.852,0.853c-0.471-0.001-0.852-0.383-0.854-0.853
		c0.001-0.472,0.383-0.853,0.854-0.853c0.469,0,0.851,0.381,0.852,0.853H6.382h0.569c0-1.101-0.89-1.99-1.989-1.99
		c-1.099,0-1.99,0.888-1.991,1.99c0.001,1.1,0.892,1.988,1.991,1.99c1.099-0.002,1.989-0.891,1.989-1.99H6.382z"/>
	<path fill="#FFFFFF" d="M6.382,22.836H5.814c0,0.47-0.382,0.852-0.852,0.852c-0.47,0-0.852-0.382-0.854-0.852
		c0.001-0.47,0.383-0.852,0.854-0.852c0.469,0,0.851,0.382,0.852,0.852H6.382h0.569c0-1.1-0.891-1.989-1.989-1.989
		c-1.099,0-1.99,0.89-1.991,1.989c0.001,1.1,0.892,1.99,1.991,1.99c1.099,0,1.989-0.891,1.989-1.99H6.382z"/>
	<polyline fill="#FFFFFF" points="6.382,30.815 10.375,30.815 10.375,29.678 6.382,29.678 	"/>
	<polyline fill="#FFFFFF" points="6.382,38.088 10.375,38.088 10.375,36.951 6.382,36.951 	"/>
	<polyline fill="#FFFFFF" points="6.382,23.405 10.375,23.405 10.375,22.267 6.382,22.267 	"/>
	<polyline fill="#FFFFFF" points="6.382,16.026 10.375,16.026 10.375,14.889 6.382,14.889 	"/>
</g>
</svg>
