<?xml version="1.0" encoding="utf-8"?>
<!-- Generator: Adobe Illustrator 16.0.0, SVG Export Plug-In . SVG Version: 6.00 Build 0)  -->
<!DOCTYPE svg PUBLIC "-//W3C//DTD SVG 1.1//EN" "http://www.w3.org/Graphics/SVG/1.1/DTD/svg11.dtd">
<svg version="1.1" id="图层_1" xmlns="http://www.w3.org/2000/svg" xmlns:xlink="http://www.w3.org/1999/xlink" x="0px" y="0px"
	 width="90px" height="75px" viewBox="0 0 90 75" enable-background="new 0 0 90 75" xml:space="preserve">
<g>
	<g>
		<path fill="#3DB481" d="M36.595,21.34c-3.207,0-5.798,2.624-5.798,5.856c0,2.798,1.932,5.135,4.521,5.714
			c0,0,0.565,0.124,1.302,0.124c0.62,0,1.24-0.124,1.24-0.124c2.594-0.579,4.529-2.916,4.529-5.714
			C42.388,23.964,39.789,21.34,36.595,21.34"/>
		<path fill="#3DB481" d="M12.794,27.351c1.527,0.056,2.789-1.161,2.854-2.696c0.193-6.373,3.447-12.284,8.687-15.79
			C29.388,5.472,35.58,4.682,41.326,6.65c0.699,0.246,1.455,0.191,2.117-0.131c0.657-0.335,1.151-0.907,1.398-1.609
			c0.279-0.828,0.155-1.721-0.319-2.443c-0.333-0.522-0.82-0.912-1.411-1.101c-7.375-2.541-15.336-1.504-21.839,2.843
			c-6.74,4.515-10.902,12.088-11.142,20.269c-0.032,0.581,0.128,1.141,0.449,1.627C11.077,26.861,11.902,27.337,12.794,27.351"/>
		<path fill="#3DB481" d="M42.474,12.879c-0.286-0.425-0.832-0.786-1.292-1.012c-4.627-2.158-9.921-1.759-14.17,1.089
			c-4.511,3.021-6.985,8.293-6.443,13.747c0.04,0.453,0.19,0.891,0.445,1.273c0.567,0.862,1.553,1.328,2.562,1.233
			c1.514-0.149,2.354-1.523,2.492-3.065c0.278-3.36,1.013-6.53,3.812-8.411c2.661-1.756,5.953-1.679,8.98-0.792
			c1.742,0.512,3.283,0.073,3.936-1.318C43.196,14.728,43.008,13.693,42.474,12.879"/>
		<path fill="#3DB481" d="M76.033,49.751c9.515,0.116,15.176-7.158,13.802-11.468c-1.271-4.028-10.484-6.185-16.717-0.181
			c-3.716,3.587-6.245,5.391-7.69,6.268c-2.932-2.805-6.327-5.005-10.034-6.457l-0.639-5.003c2.6-0.579,4.529-2.916,4.529-5.714
			c0-3.232-2.592-5.854-5.79-5.854c-3.212,0-5.793,2.623-5.793,5.854c0,2.798,1.92,5.135,4.519,5.714l-0.493,3.843
			c-2.152-0.524-4.387-0.806-6.683-0.806c-7.78,0-14.895,3.168-20.389,8.42c-1.442-0.877-3.968-2.681-7.683-6.265
			c-6.221-6.004-15.445-3.847-16.73,0.181c-1.366,4.31,4.296,11.583,13.81,11.468c2.75-0.036,4.59,0.046,5.934,0.153
			c-2.999,4.418-5.097,9.65-5.983,15.352h62.076c-0.89-5.701-2.985-10.934-5.983-15.352C71.439,49.797,73.279,49.715,76.033,49.751
			 M23.63,61.692c-1.843,0-3.335-1.509-3.335-3.367c0-1.864,1.492-3.37,3.335-3.37c1.835,0,3.325,1.506,3.325,3.37
			C26.955,60.184,25.465,61.692,23.63,61.692 M66.462,61.692c-1.845,0-3.335-1.509-3.335-3.367c0-1.864,1.49-3.37,3.335-3.37
			c1.836,0,3.325,1.506,3.325,3.37C69.787,60.184,68.298,61.692,66.462,61.692"/>
	</g>
	<g enable-background="new    ">
		<path fill="#3DB481" d="M16.224,70.38h1.163l0.711,1.956c0.09,0.262,0.163,0.549,0.247,0.828h0.031
			c0.09-0.279,0.162-0.566,0.247-0.828l0.687-1.956h1.169v4.535h-0.982V73.36c0-0.451,0.084-1.128,0.139-1.572h-0.024l-0.374,1.084
			l-0.603,1.659h-0.59l-0.609-1.659l-0.362-1.084H17.05c0.055,0.444,0.139,1.121,0.139,1.572v1.555h-0.964V70.38z"/>
		<path fill="#3DB481" d="M26.343,70.409c0-0.328,0.253-0.561,0.615-0.561c0.356,0,0.609,0.232,0.609,0.561
			c0,0.323-0.253,0.555-0.609,0.555C26.596,70.964,26.343,70.732,26.343,70.409z M26.422,71.446h1.067v3.469h-1.067V71.446z"/>
		<path fill="#3DB481" d="M33.232,72.672c0-1.512,1.001-2.379,2.14-2.379c0.584,0,1.055,0.275,1.362,0.593l-0.567,0.695
			c-0.223-0.209-0.458-0.354-0.777-0.354c-0.578,0-1.055,0.523-1.055,1.407c0,0.902,0.41,1.427,1.042,1.427
			c0.356,0,0.645-0.183,0.856-0.414l0.566,0.682C36.421,74.775,35.921,75,35.336,75C34.197,75,33.232,74.209,33.232,72.672z"/>
		<path fill="#3DB481" d="M41.99,72.623c0-1.487,0.831-2.33,2.055-2.33s2.056,0.848,2.056,2.33c0,1.486-0.832,2.377-2.056,2.377
			S41.99,74.109,41.99,72.623z M45.004,72.623c0-0.879-0.368-1.396-0.959-1.396c-0.59,0-0.952,0.517-0.952,1.396
			c0,0.883,0.361,1.438,0.952,1.438C44.636,74.062,45.004,73.506,45.004,72.623z"/>
		<path fill="#3DB481" d="M51.93,70.38h1.077v1.791h0.02l1.272-1.791h1.181l-1.356,1.815l1.609,2.72H54.55l-1.054-1.86l-0.489,0.671
			v1.189H51.93V70.38z"/>
		<path fill="#3DB481" d="M61.192,70.38h1.079v4.535h-1.079V70.38z"/>
		<path fill="#3DB481" d="M69.166,71.28h-1.212v-0.9h3.509v0.9h-1.218v3.635h-1.079V71.28z"/>
	</g>
</g>
</svg>
