<?xml version="1.0" encoding="utf-8"?>
<!-- Generator: Adobe Illustrator 16.0.0, SVG Export Plug-In . SVG Version: 6.00 Build 0)  -->
<!DOCTYPE svg PUBLIC "-//W3C//DTD SVG 1.1//EN" "http://www.w3.org/Graphics/SVG/1.1/DTD/svg11.dtd">
<svg version="1.1" id="图层_1" xmlns="http://www.w3.org/2000/svg" xmlns:xlink="http://www.w3.org/1999/xlink" x="0px" y="0px"
	 width="30px" height="30px" viewBox="0 0 30 30" enable-background="new 0 0 30 30" xml:space="preserve">
<g>
	<path fill="#3DB481" d="M22.652,11.433V8.567c0-0.513-0.415-0.928-0.929-0.928c-0.513,0-0.93,0.416-0.93,0.928v2.045
		c-0.307-0.062-0.622-0.095-0.945-0.095h-9.728c-0.323,0-0.639,0.033-0.945,0.095V7.814c0-0.089,0.008-0.188,0.028-0.312
		C9.208,7.47,9.21,7.438,9.212,7.406c0.143-3.089,2.677-5.509,5.773-5.509c2.121,0,4.068,1.159,5.083,3.027
		c0.244,0.451,0.807,0.618,1.258,0.373c0.451-0.245,0.618-0.809,0.374-1.26c-1.338-2.466-3.911-3.998-6.715-3.998
		c-4.075,0-7.416,3.174-7.628,7.235C7.33,7.469,7.316,7.646,7.316,7.814v3.62c-1.199,0.871-1.986,2.281-1.986,3.876v4.892
		c0,0.209,0.017,0.429,0.054,0.673c0.259,5.116,4.467,9.117,9.601,9.117c5.133,0,9.343-4.003,9.601-9.119
		c0.036-0.242,0.053-0.462,0.053-0.671V15.31C24.639,13.715,23.852,12.304,22.652,11.433z M19.849,12.377
		c1.461,0,2.671,1.075,2.893,2.474c-0.491-0.487-1.099-0.861-1.786-1.069c-0.326-0.103-0.674,0.084-0.772,0.411
		c-0.099,0.327,0.085,0.672,0.413,0.773c1.181,0.36,2.036,1.403,2.186,2.609V20.2c0,0.131-0.012,0.271-0.039,0.439
		c-0.005,0.031-0.009,0.065-0.01,0.097c-0.042,0.908-0.234,1.769-0.558,2.563c-1.172,2.827-3.952,4.793-7.189,4.793
		c-3.235,0-6.015-1.964-7.188-4.787c-0.323-0.797-0.519-1.659-0.559-2.567c-0.002-0.031-0.006-0.063-0.011-0.095
		c-0.027-0.173-0.039-0.313-0.039-0.441V17.57c0.188-1.54,1.501-2.738,3.091-2.738h7.289c0.342,0,0.62-0.277,0.62-0.619
		c0-0.343-0.278-0.62-0.62-0.62H10.28c-1.188,0-2.265,0.479-3.049,1.252c0.223-1.397,1.432-2.468,2.89-2.468H19.849L19.849,12.377z"
		/>
	<g>
		<g>
			<path fill="#3DB481" d="M10.27,20.714c1.092,1.19,2.184,2.379,3.276,3.568c0.267,0.291,0.843,0.403,1.173,0.151
				c1.813-1.383,3.627-2.769,5.44-4.153c0.979-0.746,0.016-2.43-0.978-1.671c-1.813,1.385-3.626,2.768-5.44,4.153
				c0.392,0.05,0.783,0.101,1.173,0.151c-1.092-1.189-2.185-2.38-3.276-3.57C10.792,18.423,9.426,19.796,10.27,20.714L10.27,20.714z
				"/>
		</g>
	</g>
</g>
</svg>
