<?xml version="1.0" encoding="utf-8"?>
<!-- Generator: Adobe Illustrator 16.0.0, SVG Export Plug-In . SVG Version: 6.00 Build 0)  -->
<!DOCTYPE svg PUBLIC "-//W3C//DTD SVG 1.1//EN" "http://www.w3.org/Graphics/SVG/1.1/DTD/svg11.dtd">
<svg version="1.1" id="图层_1" xmlns="http://www.w3.org/2000/svg" xmlns:xlink="http://www.w3.org/1999/xlink" x="0px" y="0px"
	 width="30px" height="30px" viewBox="0 0 30 30" enable-background="new 0 0 30 30" xml:space="preserve">
<g>
	<path fill="#3DB481" d="M15,14.421c3.976,0,7.209-3.235,7.209-7.21C22.209,3.235,18.976,0,15,0c-3.977,0-7.21,3.235-7.21,7.21
		C7.79,11.186,11.023,14.421,15,14.421z M15,1.883c2.938,0,5.328,2.39,5.328,5.328c0,2.938-2.391,5.327-5.328,5.327
		s-5.328-2.39-5.328-5.327C9.672,4.272,12.063,1.883,15,1.883z"/>
	<path fill="#3DB481" d="M27.422,21.885c-1.804-3.115-4.688-5.426-8.116-6.506c-0.444-0.14-0.926,0.068-1.131,0.487
		c-0.72,1.484-1.812,2.731-3.175,3.636c-1.364-0.904-2.456-2.151-3.177-3.636c-0.204-0.42-0.684-0.627-1.129-0.487
		c-3.431,1.08-6.313,3.391-8.116,6.506c-0.169,0.292-0.169,0.652,0,0.943C5.138,27.252,9.897,30,15,30
		c5.102,0,9.861-2.748,12.422-7.172C27.591,22.536,27.591,22.177,27.422,21.885z M19.475,17.431
		c0.519,0.199,1.021,0.434,1.505,0.698c-0.765,1.324-1.844,2.896-3.213,4.111c-0.154-0.135-0.314-0.279-0.479-0.428
		c-0.338-0.304-0.682-0.611-1.038-0.891C17.567,20.005,18.665,18.82,19.475,17.431z M13.749,20.922
		c-0.357,0.279-0.701,0.587-1.037,0.891c-0.165,0.148-0.324,0.293-0.479,0.428c-1.368-1.216-2.449-2.788-3.212-4.111
		c0.484-0.265,0.985-0.499,1.505-0.698C11.335,18.82,12.433,20.005,13.749,20.922z M15.627,28.097v-4.149
		c0-0.347-0.28-0.628-0.627-0.628s-0.628,0.281-0.628,0.628v4.149c-4.009-0.204-7.709-2.349-9.879-5.74
		c0.909-1.423,2.086-2.633,3.457-3.572c0.893,1.542,2.196,3.403,3.885,4.762c0.227,0.183,0.55,0.185,0.778,0.006
		c0.312-0.241,0.615-0.516,0.938-0.808c0.475-0.428,0.963-0.868,1.448-1.174c0.484,0.306,0.973,0.746,1.448,1.174
		c0.322,0.292,0.627,0.566,0.938,0.808c0.112,0.09,0.247,0.133,0.384,0.133c0.141,0,0.278-0.046,0.394-0.139
		c1.688-1.358,2.993-3.22,3.885-4.762c1.369,0.939,2.548,2.149,3.456,3.572C23.336,25.748,19.638,27.893,15.627,28.097z"/>
</g>
</svg>
