<?xml version="1.0" encoding="utf-8"?>
<!-- Generator: Adobe Illustrator 16.0.0, SVG Export Plug-In . SVG Version: 6.00 Build 0)  -->
<!DOCTYPE svg PUBLIC "-//W3C//DTD SVG 1.1//EN" "http://www.w3.org/Graphics/SVG/1.1/DTD/svg11.dtd">
<svg version="1.1" id="图层_1" xmlns="http://www.w3.org/2000/svg" xmlns:xlink="http://www.w3.org/1999/xlink" x="0px" y="0px"
	 width="53px" height="53px" viewBox="0 0 53 53" enable-background="new 0 0 53 53" xml:space="preserve">
<path fill="#3DB481" d="M53,47.861C53,50.699,50.702,53,47.867,53H5.133C2.298,53,0,50.699,0,47.861V5.139C0,2.301,2.298,0,5.133,0
	h42.734C50.702,0,53,2.301,53,5.139V47.861z"/>
<g>
	<path fill="#FFFFFF" d="M25.214,26.377H11.928c-0.591,0-1.032,0.444-1.032,1.036c0,0.59,0.441,1.031,1.032,1.031h13.286
		c0.591,0,1.034-0.441,1.034-1.031C26.248,26.821,25.805,26.377,25.214,26.377L25.214,26.377z M31.414,30.067
		c-0.591,0-1.033,0.444-1.033,1.035c0,0.592,0.442,1.031,1.033,1.031h1.497l-0.395-2.066H31.414L31.414,30.067z M23.918,31.038
		c-0.22-0.247-0.281-0.593-0.175-0.971H11.928c-0.591,0-1.032,0.444-1.032,1.035c0,0.592,0.441,1.031,1.032,1.031h12.824
		c-0.117-0.182-0.288-0.395-0.445-0.588C24.165,31.369,24.029,31.201,23.918,31.038L23.918,31.038z M27.852,38.186
		c-0.282-0.561-0.859-1.427-1.284-1.993l-0.025-0.034l-0.021-0.039c-0.039-0.078-0.075-0.158-0.113-0.245
		c-0.041-0.091-0.082-0.185-0.129-0.274c-0.04-0.084-0.081-0.154-0.121-0.215H10.452c-0.738,0-1.181-0.592-1.181-0.89V23.574h17.645
		c-0.854-1.174-1.259-2.488-1.259-4.055c0-1.025,0.206-1.996,0.604-2.884H9.271v-2.363c0-0.295,0.442-0.884,1.181-0.884H29.17
		c1.043-0.623,2.199-0.921,3.539-0.921c1.266,0,2.451,0.314,3.5,0.921h3.324c0.737,0,1.181,0.589,1.181,0.884l-0.149,2.363H39.18
		c0.39,0.867,0.577,1.817,0.577,2.884c0,1.512-0.424,2.873-1.258,4.054h2.066v5.61l0.224,0.336h0.659l0.031,0.004
		c0.732,0.092,1.466,0.344,2.186,0.75V14.42c0-2.361-1.919-3.984-4.28-3.984H10.452c-2.215,0-4.281,1.623-4.281,3.984v20.075
		c0,2.365,2.065,3.987,4.281,3.987h17.574c-0.052-0.093-0.103-0.179-0.154-0.259L27.852,38.186L27.852,38.186z M30.35,21.881
		c-0.595-0.739-0.891-1.477-0.891-2.363c0-1.031,0.3-1.77,0.891-2.361c0.736-0.737,1.476-1.032,2.36-1.032
		c0.884,0,1.772,0.442,2.359,1.032c0.594,0.738,0.889,1.477,0.889,2.361c0,1.011-0.284,1.738-0.847,2.319l0.759,2.821l0.675-0.563
		c0.296-0.148,0.442-0.295,0.589-0.442l0.15-0.146c1.032-1.183,1.477-2.511,1.477-3.988c0-1.769-0.589-3.099-1.771-4.279
		c-1.184-1.18-2.659-1.771-4.281-1.771c-1.772,0-3.1,0.591-4.283,1.771c-1.18,1.181-1.77,2.656-1.77,4.279
		c0,1.774,0.589,3.102,1.77,4.282c0.886,0.884,1.921,1.476,3.102,1.622l0.105,0.028l-0.57-2.983
		C30.825,22.316,30.587,22.12,30.35,21.881L30.35,21.881z M24.694,30.471c0.091,0.137,0.224,0.299,0.362,0.472
		c0.265,0.327,0.539,0.668,0.681,0.998c0.018,0.042,0.034,0.082,0.047,0.122c0.063,0.189,0.164,0.389,0.27,0.602
		c0.111,0.224,0.227,0.455,0.311,0.698c0.074,0.167,0.112,0.379,0.152,0.602c0.026,0.145,0.071,0.399,0.119,0.506l0.011,0.006
		l0.057,0.057c0.161,0.162,0.299,0.366,0.436,0.636c0.055,0.11,0.104,0.22,0.146,0.313c0.027,0.063,0.055,0.12,0.078,0.172
		c0.43,0.577,1.019,1.457,1.336,2.081c0.097,0.156,0.194,0.326,0.299,0.521c0.197,0.372,0.379,0.761,0.556,1.138
		c0.344,0.729,0.696,1.486,1.173,2.123c0.983,1.265,2.11,2.552,3.682,3.409c0.685,0.35,1.199,0.868,1.534,1.542l0.026,0.054
		l0.504,2.399c1.079-0.209,2.943-0.523,4.901-0.854c2.202-0.371,4.647-0.784,5.664-0.999l-0.505-2.159l0.028-0.113
		c0.021-0.087,0.043-0.177,0.064-0.271c0.13-0.551,0.277-1.173,0.542-1.716c0.056-0.176,0.086-0.396,0.12-0.627
		c0.036-0.246,0.072-0.502,0.144-0.742c0.003-0.635,0.036-1.254,0.071-1.909c0.036-0.69,0.075-1.404,0.075-2.15v-0.786l0.01-0.046
		c0.069-0.349-0.051-1.27-0.538-1.866c-0.28-0.342-0.627-0.51-1.057-0.51h-0.297l-0.133-0.267c-0.415-0.832-0.983-1.545-1.535-2.235
		c-0.196-0.153-0.403-0.298-0.616-0.43c-0.671-0.413-1.352-0.669-2.026-0.759h-1.113l-0.709-1.066
		c-0.042-0.046-0.074-0.089-0.1-0.126l-0.116-0.093c-0.639-0.512-1.282-0.781-2.207-0.923l-1.24,0.208l-2.776-10.334
		c-0.193-0.867-0.529-0.867-0.692-0.867c-0.098,0-0.211,0.016-0.346,0.05l-0.038,0.009l-0.025,0.003
		c-0.025,0.003-0.249,0.041-0.446,0.189c-0.247,0.187-0.35,0.478-0.313,0.888l2.661,13.899v0.486c0,0.771-0.224,1.446-0.687,2.061
		l-0.021,0.03l-0.038,0.037c-0.179,0.175-0.4,0.393-0.71,0.416c-0.196,0.038-0.391,0.055-0.579,0.055
		c-0.713,0-1.357-0.263-1.866-0.764c-0.599-0.487-1.076-1.265-1.536-2.017c-0.159-0.26-0.311-0.505-0.461-0.732
		c-0.154-0.231-0.305-0.495-0.451-0.75c-0.135-0.237-0.274-0.482-0.408-0.685c-0.458-0.441-1.156-0.757-1.677-0.757
		c-0.245,0-0.429,0.064-0.563,0.198c-0.093,0.093-0.183,0.228-0.234,0.353c-0.033,0.083-0.041,0.14-0.041,0.165l0.015,0.016
		L24.694,30.471L24.694,30.471z M24.694,30.471"/>
</g>
</svg>
