<?xml version="1.0" encoding="utf-8"?>
<!-- Generator: Adobe Illustrator 16.0.0, SVG Export Plug-In . SVG Version: 6.00 Build 0)  -->
<!DOCTYPE svg PUBLIC "-//W3C//DTD SVG 1.1//EN" "http://www.w3.org/Graphics/SVG/1.1/DTD/svg11.dtd">
<svg version="1.1" id="图层_1" xmlns="http://www.w3.org/2000/svg" xmlns:xlink="http://www.w3.org/1999/xlink" x="0px" y="0px"
	 width="30px" height="30px" viewBox="0 0 30 30" enable-background="new 0 0 30 30" xml:space="preserve">
<g>
	<path fill="#3DB481" d="M22.68,11.452v-2.87c0-0.514-0.416-0.931-0.93-0.931s-0.931,0.417-0.931,0.931v2.048
		c-0.307-0.062-0.623-0.094-0.947-0.094h-9.743c-0.323,0-0.642,0.032-0.947,0.094V7.826c0-0.089,0.009-0.188,0.028-0.312
		c0.005-0.031,0.008-0.063,0.01-0.096c0.142-3.094,2.683-5.518,5.781-5.518c2.125,0,4.075,1.161,5.091,3.03
		c0.246,0.452,0.81,0.619,1.262,0.374c0.451-0.245,0.618-0.81,0.373-1.262c-1.341-2.47-3.918-4.004-6.726-4.004
		c-4.081,0-7.428,3.179-7.639,7.246C7.335,7.48,7.32,7.658,7.32,7.826v3.626c-1.201,0.872-1.989,2.285-1.989,3.881v4.9
		c0,0.209,0.018,0.43,0.054,0.674c0.261,5.125,4.475,9.133,9.617,9.133s9.356-4.01,9.617-9.135c0.034-0.242,0.051-0.463,0.051-0.673
		v-4.899C24.669,13.737,23.883,12.324,22.68,11.452z M19.872,12.396c1.463,0,2.675,1.077,2.897,2.478
		c-0.492-0.486-1.102-0.861-1.788-1.07c-0.328-0.102-0.676,0.085-0.775,0.412c-0.099,0.328,0.086,0.675,0.414,0.774
		c1.183,0.36,2.04,1.406,2.188,2.614v2.629c0,0.131-0.012,0.271-0.038,0.439c-0.004,0.033-0.009,0.066-0.009,0.099
		c-0.043,0.906-0.237,1.77-0.56,2.566c-1.173,2.831-3.959,4.8-7.201,4.8c-3.24,0-6.024-1.967-7.199-4.796
		c-0.323-0.797-0.519-1.662-0.56-2.569c-0.001-0.031-0.006-0.064-0.011-0.097c-0.026-0.172-0.038-0.313-0.038-0.443v-2.636
		c0.188-1.542,1.503-2.742,3.095-2.742h7.3c0.343,0,0.621-0.277,0.621-0.619c0-0.343-0.278-0.62-0.621-0.62h-7.3
		c-1.189,0-2.269,0.479-3.055,1.252c0.225-1.397,1.435-2.471,2.896-2.471H19.872L19.872,12.396z"/>
	<path fill="#3DB481" d="M15.621,22.103v-2.196c0-0.343-0.277-0.619-0.62-0.619c-0.344,0-0.62,0.276-0.62,0.619v2.196
		c-0.703,0.254-1.206,0.924-1.206,1.714c0,1.008,0.816,1.825,1.826,1.825c1.008,0,1.824-0.817,1.824-1.825
		C16.825,23.026,16.324,22.356,15.621,22.103z"/>
</g>
</svg>
