<?xml version="1.0" encoding="utf-8"?>
<!-- Generator: Adobe Illustrator 16.0.0, SVG Export Plug-In . SVG Version: 6.00 Build 0)  -->
<!DOCTYPE svg PUBLIC "-//W3C//DTD SVG 1.1//EN" "http://www.w3.org/Graphics/SVG/1.1/DTD/svg11.dtd">
<svg version="1.1" id="图层_1" xmlns="http://www.w3.org/2000/svg" xmlns:xlink="http://www.w3.org/1999/xlink" x="0px" y="0px"
	 width="44px" height="44px" viewBox="0 0 44 44" enable-background="new 0 0 44 44" xml:space="preserve">
<circle fill="#FF426A" cx="22" cy="22" r="21.938"/>
<g>
	<path opacity="0.4" fill="#FFFFFF" d="M19.985,16.977v9.601c-1.199,0.696-2.015,1.978-2.015,3.461c0,2.221,1.804,4.019,4.029,4.019
		c2.226,0,4.029-1.798,4.029-4.019c0-1.483-0.815-2.765-2.015-3.461v-9.601"/>
	<g>
		<path fill="#FFFFFF" d="M22,9.943c1.111,0,2.015,0.899,2.015,2.01v14.624c1.199,0.696,2.015,1.978,2.015,3.461
			c0,2.221-1.804,4.019-4.029,4.019c-2.225,0-4.029-1.798-4.029-4.019c0-1.483,0.815-2.765,2.015-3.461V11.953
			C19.985,10.842,20.887,9.943,22,9.943 M22,7.934c-2.222,0-4.029,1.802-4.029,4.019v13.613c-1.264,1.133-2.015,2.759-2.015,4.472
			c0,3.324,2.711,6.027,6.044,6.027s6.044-2.703,6.044-6.027c0-1.713-0.75-3.339-2.015-4.472V11.953
			C26.029,9.736,24.223,7.934,22,7.934z"/>
		<rect x="18.979" y="22" fill="#FFFFFF" width="2.014" height="1.005"/>
		<rect x="18.979" y="15.972" fill="#FFFFFF" width="2.014" height="1.005"/>
		<rect x="18.979" y="18.986" fill="#FFFFFF" width="3.021" height="1.004"/>
		<rect x="18.979" y="12.958" fill="#FFFFFF" width="3.021" height="1.005"/>
	</g>
</g>
</svg>
