<?xml version="1.0" encoding="utf-8"?>
<!-- Generator: Adobe Illustrator 16.0.0, SVG Export Plug-In . SVG Version: 6.00 Build 0)  -->
<!DOCTYPE svg PUBLIC "-//W3C//DTD SVG 1.1//EN" "http://www.w3.org/Graphics/SVG/1.1/DTD/svg11.dtd">
<svg version="1.1" id="图层_1" xmlns="http://www.w3.org/2000/svg" xmlns:xlink="http://www.w3.org/1999/xlink" x="0px" y="0px"
	 width="30px" height="30px" viewBox="0 0 30 30" enable-background="new 0 0 30 30" xml:space="preserve">
<g>
	<path fill="#3DB481" d="M23.876,0H5.707C4.678,0,3.842,0.835,3.842,1.865v6.051c0,0.623,0.312,1.205,0.831,1.552l5.935,3.952
		c-2.756,1.492-4.632,4.408-4.632,7.757c0,4.859,3.955,8.815,8.816,8.815c4.86,0,8.815-3.953,8.815-8.815
		c0-3.349-1.877-6.265-4.632-7.757l5.935-3.952c0.519-0.347,0.831-0.929,0.831-1.552V1.865C25.742,0.835,24.904,0,23.876,0z
		 M21.74,21.177c0,3.839-3.112,6.949-6.949,6.949c-3.838,0-6.949-3.111-6.949-6.949s3.112-6.949,6.949-6.949
		C18.63,14.228,21.74,17.339,21.74,21.177z M23.876,7.916l-3.555,2.367V6.731c0-0.342-0.278-0.621-0.621-0.621
		c-0.344,0-0.623,0.279-0.623,0.621v4.38l-2.241,1.494c-0.658-0.158-1.34-0.242-2.044-0.242c-0.703,0-1.389,0.086-2.045,0.242
		l-2.281-1.519V6.731c0-0.342-0.278-0.62-0.621-0.62c-0.344,0-0.621,0.278-0.621,0.62v3.527L5.706,7.916V1.867h3.518v1.664
		c0,0.343,0.277,0.622,0.621,0.622c0.342,0,0.621-0.279,0.621-0.622V1.867h8.612v1.664c0,0.343,0.279,0.622,0.622,0.622
		c0.344,0,0.621-0.279,0.621-0.622V1.867h3.556V7.916L23.876,7.916z"/>
	<g>
		<path fill="#3DB481" d="M9.894,20.215c1.094,1.192,2.187,2.382,3.28,3.573c0.268,0.292,0.844,0.404,1.174,0.151
			c1.817-1.386,3.633-2.771,5.448-4.158c0.979-0.748,0.016-2.433-0.979-1.672c-1.817,1.386-3.631,2.771-5.449,4.157
			c0.393,0.052,0.784,0.101,1.175,0.151c-1.093-1.19-2.186-2.381-3.28-3.572C10.417,17.922,9.051,19.295,9.894,20.215L9.894,20.215z
			"/>
	</g>
</g>
</svg>
