<?xml version="1.0" encoding="utf-8"?>
<!-- Generator: Adobe Illustrator 16.0.0, SVG Export Plug-In . SVG Version: 6.00 Build 0)  -->
<!DOCTYPE svg PUBLIC "-//W3C//DTD SVG 1.1//EN" "http://www.w3.org/Graphics/SVG/1.1/DTD/svg11.dtd">
<svg version="1.1" id="图层_1" xmlns="http://www.w3.org/2000/svg" xmlns:xlink="http://www.w3.org/1999/xlink" x="0px" y="0px"
	 width="60px" height="60px" viewBox="0 0 60 60" enable-background="new 0 0 60 60" xml:space="preserve">
<circle fill="#F5CC0F" cx="29.969" cy="29.969" r="29.681"/>
<g>
	<path fill="#FFFFFF" d="M29.895,20.407l-1.27,5.768h3.685c0.229,0,0.444,0.104,0.588,0.282c0.144,0.177,0.197,0.412,0.15,0.635
		l-1.802,8.173c-0.077,0.354-0.391,0.592-0.737,0.592c-0.053,0-0.106-0.006-0.162-0.016c-0.406-0.09-0.663-0.492-0.574-0.9
		l1.598-7.26h-3.686c-0.229,0-0.443-0.104-0.587-0.28c-0.144-0.18-0.196-0.412-0.149-0.635l1.473-6.683
		c0.09-0.406,0.492-0.663,0.9-0.573C29.728,19.599,29.983,20.001,29.895,20.407L29.895,20.407z M29.999,14.68
		c-4.492,0-8.145,3.653-8.145,8.144c0,0.483,0.043,0.975,0.133,1.46c0.002,0.016,0.004,0.032,0.008,0.048l2.166,11.457
		c0.077,0.41,0.471,0.68,0.881,0.602c0.41-0.076,0.679-0.473,0.602-0.883l-2.159-11.411c-0.003-0.017-0.003-0.03-0.006-0.044
		c-0.077-0.41-0.116-0.824-0.116-1.23c0-3.66,2.979-6.637,6.637-6.637c3.656,0,6.637,2.977,6.637,6.637
		c0,0.406-0.041,0.82-0.117,1.23c-0.001,0.014-0.004,0.027-0.004,0.044l-2.158,11.415c-0.078,0.408,0.191,0.805,0.602,0.883
		c0.047,0.006,0.093,0.012,0.141,0.012c0.354,0,0.671-0.252,0.74-0.611l2.165-11.459c0.005-0.017,0.006-0.032,0.009-0.048
		c0.087-0.486,0.133-0.977,0.133-1.462C38.142,18.332,34.487,14.68,29.999,14.68L29.999,14.68z M33.92,41.391h-7.845
		c-0.416,0-0.754,0.338-0.754,0.754s0.338,0.754,0.754,0.754h7.844c0.416,0,0.754-0.338,0.754-0.754S34.335,41.391,33.92,41.391
		L33.92,41.391z M34.392,38.281h-8.789c-0.415,0-0.754,0.34-0.754,0.754c0,0.416,0.339,0.756,0.754,0.756h8.789
		c0.417,0,0.755-0.34,0.755-0.756C35.146,38.621,34.809,38.281,34.392,38.281L34.392,38.281z M34.392,38.281"/>
</g>
<circle fill="#FFFFFF" cx="8.395" cy="30.438" r="2.563"/>
<circle fill="#FFFFFF" cx="49.395" cy="30.438" r="2.563"/>
</svg>
