<?xml version="1.0" encoding="utf-8"?>
<!-- Generator: Adobe Illustrator 16.0.0, SVG Export Plug-In . SVG Version: 6.00 Build 0)  -->
<!DOCTYPE svg PUBLIC "-//W3C//DTD SVG 1.1//EN" "http://www.w3.org/Graphics/SVG/1.1/DTD/svg11.dtd">
<svg version="1.1" id="图层_1" xmlns="http://www.w3.org/2000/svg" xmlns:xlink="http://www.w3.org/1999/xlink" x="0px" y="0px"
	 width="60px" height="60px" viewBox="0 0 60 60" enable-background="new 0 0 60 60" xml:space="preserve">
<circle fill="#F0F0F0" cx="29.969" cy="29.969" r="29.681"/>
<g>
	<path fill="#FF426A" d="M35.966,24.023c-0.123-0.116-0.288-0.187-0.47-0.187c-0.379,0-0.688,0.307-0.688,0.687
		c0,0.219,0.104,0.415,0.265,0.541l-0.003,0.002c2.016,1.575,3.171,3.943,3.171,6.497c0,4.545-3.696,8.242-8.241,8.242
		c-4.544,0-8.242-3.697-8.242-8.242c0-2.378,1.029-4.643,2.823-6.208l-0.001-0.001c0.137-0.125,0.224-0.306,0.224-0.506
		c0-0.379-0.308-0.687-0.687-0.687c-0.19,0-0.362,0.077-0.486,0.202c-2.063,1.827-3.246,4.447-3.246,7.203
		c0,5.302,4.313,9.615,9.615,9.615s9.615-4.313,9.615-9.615C39.615,28.605,38.286,25.861,35.966,24.023L35.966,24.023z
		 M29.692,30.714c0.35,0,0.639-0.262,0.681-0.601h0.006v-8.585h-0.006c-0.042-0.338-0.331-0.601-0.681-0.601
		s-0.639,0.262-0.681,0.601h-0.006v8.585h0.006C29.053,30.453,29.342,30.714,29.692,30.714L29.692,30.714z"/>
</g>
</svg>
